<?xml version="1.0" standalone="no"?>
<!DOCTYPE svg PUBLIC "-//W3C//DTD SVG 1.1//EN" "http://www.w3.org/Graphics/SVG/1.1/DTD/svg11.dtd" >
<svg xmlns="http://www.w3.org/2000/svg">
<metadata>
This is a custom SVG webfont generated by Font Squirrel.
Copyright   : HTF Knockout   19909 The Hoefler Type Foundry Inc httpwwwtypographycom
</metadata>
<defs>
<font id="KnockoutHTF29JuniorLiteweigRg" horiz-adv-x="946" >
<font-face units-per-em="2048" ascent="1638" descent="-410" />
<missing-glyph horiz-adv-x="335" />
<glyph unicode=" "  horiz-adv-x="335" />
<glyph unicode="&#x09;" horiz-adv-x="335" />
<glyph unicode="&#xa0;" horiz-adv-x="335" />
<glyph unicode="!" horiz-adv-x="391" d="M102 770v594h189v-594l-68 -389h-53zM111 0v227h170v-227h-170z" />
<glyph unicode="&#x22;" horiz-adv-x="528" d="M55 952l70 412h158l-119 -412h-109zM281 952l100 412h160l-152 -412h-108z" />
<glyph unicode="#" horiz-adv-x="1144" d="M16 367v114h269l67 402h-278v114h299l61 367h127l-59 -367h256l61 367h127l-61 -367h243v-114h-264l-69 -402h276v-114h-297l-61 -367h-127l61 367h-256l-63 -367h-127l63 367h-248zM412 481h256l69 402h-258z" />
<glyph unicode="$" horiz-adv-x="878" d="M82 317v95h182v-70q0 -211 180 -211q82 0 130.5 53.5t48.5 132.5q0 61 -35 120t-76 94.5t-117 93.5q-133 96 -209.5 190t-76.5 223q0 133 66.5 226.5t186.5 119.5v179h164v-174q129 -20 205 -113.5t76 -226.5v-91h-178v68q0 90 -44 147.5t-132 57.5q-76 0 -118 -45 t-42 -121q0 -53 28.5 -103.5t60.5 -80t103 -88.5q66 -47 93.5 -70t81 -73t77 -91t45 -103.5t21.5 -131.5q0 -135 -76 -228.5t-201 -118.5v-176h-164v176q-129 23 -204.5 115t-75.5 225z" />
<glyph unicode="%" horiz-adv-x="1163" d="M70 899v285q0 94 56 151.5t144 57.5q90 0 146.5 -57.5t56.5 -151.5v-285q0 -96 -56.5 -153.5t-146.5 -57.5q-88 0 -144 57.5t-56 153.5zM117 16l864 1391l80 -61l-864 -1391zM199 868q0 -31 19.5 -49t52 -18t53 18.5t20.5 48.5v346q0 29 -20.5 49.5t-53 20.5t-52 -19.5 t-19.5 -50.5v-346zM705 180v283q0 96 57 153.5t145 57.5q90 0 146.5 -57.5t56.5 -153.5v-283q0 -98 -56.5 -155.5t-146.5 -57.5q-88 0 -145 57.5t-57 155.5zM834 147q0 -29 20 -48t53 -19t53.5 19.5t20.5 47.5v349q0 29 -20.5 48t-53.5 19t-53 -19.5t-20 -47.5v-349z" />
<glyph unicode="&#x26;" horiz-adv-x="1140" d="M68 309q0 246 258 430q-59 162 -60 301q0 154 81 254.5t220 100.5q129 0 194.5 -83t65.5 -218q0 -229 -299 -412q80 -236 168 -360q57 86 94 195.5t37 187.5h154q-2 -115 -52 -256.5t-130 -251.5q63 -68 129 -68q59 0 59 70v131h137v-137q0 -106 -56 -165t-155 -59 q-106 0 -223 113q-125 -113 -289 -113q-150 0 -241.5 97.5t-91.5 242.5zM252 336q0 -98 50 -149.5t144 -51.5q82 0 140 58q-106 141 -203 391q-131 -105 -131 -248zM440 1042q0 -86 37 -223q186 125 187 273q0 135 -97 135q-59 0 -93 -48.5t-34 -136.5z" />
<glyph unicode="'" horiz-adv-x="364" d="M86 952l86 412h182l-155 -412h-113z" />
<glyph unicode="(" horiz-adv-x="659" d="M180 616q0 297 113 545t323 414l48 -55q-303 -348 -304 -904q0 -557 304 -901l-48 -55q-211 166 -323.5 411.5t-112.5 544.5z" />
<glyph unicode=")" horiz-adv-x="659" d="M-6 -285q305 346 305 901q0 553 -305 904l49 55q209 -168 322.5 -415t113.5 -544t-113.5 -543.5t-322.5 -412.5z" />
<glyph unicode="*" horiz-adv-x="641" d="M68 1192l36 65q12 18 37 5q74 -45 142 -107q-25 102 -25 176q0 29 25 29h75q23 0 23 -29q0 -78 -23 -176q63 61 140 109q25 12 39 -7l36 -63q3 -5 3 -11q0 -13 -17 -24q-70 -41 -162 -67q96 -29 162 -68q17 -12 17 -25q0 -6 -3 -12l-36 -63q-10 -16 -37 -6 q-78 49 -140 108q23 -92 23 -176q0 -31 -23 -31h-75q-23 0 -23 31q0 86 23 174q-82 -74 -142 -106q-25 -18 -37 4l-36 65q-4 6 -4 12q0 12 18 21q61 39 162 67q-76 23 -164 70q-18 10 -18 23q0 6 4 12z" />
<glyph unicode="+" horiz-adv-x="718" d="M82 618v148h205v221h147v-221h203v-148h-203v-223h-147v223h-205z" />
<glyph unicode="," horiz-adv-x="387" d="M74 -135q53 0 82.5 36t29.5 99h-75v231h168v-204q0 -102 -51.5 -162t-153.5 -60v60z" />
<glyph unicode="-" horiz-adv-x="557" d="M63 551v156h431v-156h-431z" />
<glyph unicode="." horiz-adv-x="387" d="M111 0v231h168v-231h-168z" />
<glyph unicode="/" horiz-adv-x="540" d="M4 -131l408 1624h131l-406 -1624h-133z" />
<glyph unicode="0" horiz-adv-x="911" d="M94 324v716q0 160 98.5 257.5t264.5 97.5t264 -97.5t98 -257.5v-716q0 -160 -98 -257.5t-264 -97.5t-264.5 97.5t-98.5 257.5zM274 305q0 -72 50.5 -120t132.5 -48t131 48t49 120v754q0 72 -49 120t-131 48t-132.5 -48.5t-50.5 -119.5v-754z" />
<glyph unicode="1" horiz-adv-x="464" d="M139 0v1276q88 0 88 88h97v-1364h-185z" />
<glyph unicode="2" horiz-adv-x="802" d="M57 0v74q0 160 57.5 289t229.5 303q131 123 185.5 207.5t54.5 183.5q0 178 -168 178q-170 0 -170 -184v-125h-164v127q0 145 86 243.5t246 98.5q174 0 258 -97.5t84 -248.5q0 -246 -316 -504q-190 -193 -190 -369h493v-176h-686z" />
<glyph unicode="3" horiz-adv-x="815" d="M74 293v123h164v-101q0 -186 163 -186q170 0 170 176v191q0 125 -147 125h-107v147h107q147 0 147 125v164q0 178 -170 178q-164 0 -163 -186v-101h-164v123q0 141 85 232.5t246.5 91.5t252 -89t90.5 -239v-139q0 -88 -43 -149.5t-119 -76.5q162 -43 162 -217v-188 q0 -150 -90.5 -239t-252 -89t-246.5 91.5t-85 232.5z" />
<glyph unicode="4" horiz-adv-x="792" d="M20 309v135l480 920h149v-893h121v-162h-121v-309h-164v309h-465zM211 471h274v537z" />
<glyph unicode="5" horiz-adv-x="827" d="M80 293v104h164v-82q0 -86 42 -136t126 -50q170 0 170 186v308q0 70 -36 107.5t-100 37.5q-143 0 -202 -154l-152 31l37 719h633q-6 -94 -39 -132t-119 -38h-321l-27 -395q74 115 252 114q117 0 185.5 -71.5t68.5 -190.5v-346q0 -156 -92 -246t-258 -90q-158 0 -245 94.5 t-87 229.5z" />
<glyph unicode="6" horiz-adv-x="868" d="M92 319v711q0 166 97.5 265.5t263.5 99.5q158 0 245.5 -94.5t87.5 -229.5v-88h-163v66q0 186 -181 186q-172 0 -172 -201v-321q96 121 260 121q125 0 198 -78t73 -199v-238q0 -158 -94.5 -253t-260.5 -95q-164 0 -259 95t-95 253zM270 309q0 -80 48.5 -130t128 -50 t128 46t48.5 120v233q0 164 -170 164q-84 0 -133.5 -47t-49.5 -117v-219z" />
<glyph unicode="7" horiz-adv-x="763" d="M49 1192v172h705v-121q-201 -385 -293 -659.5t-94 -583.5h-197q6 268 114.5 579.5t276.5 612.5h-512z" />
<glyph unicode="8" horiz-adv-x="870" d="M84 297v164q0 80 41 141.5t102 89.5q-61 29 -99 89.5t-38 142.5v143q0 150 91 239t255 89t254 -89t90 -239v-143q0 -82 -37.5 -142.5t-97.5 -89.5q61 -31 101 -91t40 -140v-164q0 -150 -93 -239t-257 -89q-166 0 -259 89t-93 239zM256 307q0 -82 50 -130t130 -48 q78 0 128 48t50 130v154q0 66 -46 116t-132 50q-88 0 -134 -50.5t-46 -115.5v-154zM260 915q0 -68 44 -117.5t132 -49.5q86 0 130 50t44 117v142q0 84 -48 131t-126 47t-127 -47t-49 -131v-142z" />
<glyph unicode="9" horiz-adv-x="888" d="M90 797v247q0 158 93 254.5t257 96.5q172 0 264.5 -96.5t92.5 -260.5v-714q0 -164 -95.5 -259.5t-261.5 -95.5q-162 0 -254 88t-92 226v88h162v-64q0 -88 51 -133t139 -45q170 0 170 186v316q-90 -121 -243 -121q-131 0 -207 82t-76 205zM264 821q0 -74 44 -119t132 -45 q82 0 129 47.5t47 116.5v234q0 78 -45 129t-131 51q-84 0 -130 -46t-46 -120v-248z" />
<glyph unicode=":" horiz-adv-x="387" d="M111 0v231h168v-231h-168zM111 666v231h168v-231h-168z" />
<glyph unicode=";" horiz-adv-x="387" d="M74 -135q53 0 82.5 36t29.5 99h-75v231h168v-204q0 -102 -51.5 -162t-153.5 -60v60zM111 666v231h168v-231h-168z" />
<glyph unicode="&#x3c;" horiz-adv-x="950" d="M104 655v56l695 448v-186l-451 -291l451 -291v-186z" />
<glyph unicode="=" horiz-adv-x="702" d="M72 446v164h559v-164h-559zM72 774v162h559v-162h-559z" />
<glyph unicode="&#x3e;" horiz-adv-x="950" d="M154 205v186l450 291l-450 293v184l692 -450v-54z" />
<glyph unicode="?" horiz-adv-x="753" d="M49 913v146q0 150 80 242t240 92q178 0 261 -95.5t83 -242.5q0 -211 -205 -410q-63 -59 -85 -109.5t-22 -125.5h-139q0 59 7 100t39 98.5t51 83.5l92 123q80 111 79 236q0 98 -37.5 141t-117.5 43q-160 0 -160 -195v-127h-166zM242 0v227h170v-227h-170z" />
<glyph unicode="@" horiz-adv-x="1304" d="M61 627q0 281 176.5 472t436.5 191q143 0 259 -53t182.5 -138t101 -180.5t34.5 -191.5q0 -174 -93 -301t-255 -127q-70 0 -118 44t-46 114q-82 -139 -200 -140q-80 0 -129.5 58.5t-49.5 156.5q0 143 97.5 273.5t226.5 130.5q117 0 133 -109l33 99h135l-121 -385 q-12 -36 -12 -65q0 -24 8 -43q18 -42 76 -42q92 0 152.5 92t60.5 246q0 209 -133 339t-342 130q-223 0 -367.5 -165t-144.5 -406q0 -250 143.5 -407t368.5 -157q211 0 346 132l57 -72q-168 -154 -403 -154q-264 0 -438.5 184.5t-174.5 473.5zM500 541q0 -57 26.5 -89 t67.5 -32q92 0 145 162l47 157q0 111 -81 111q-86 0 -145.5 -99t-59.5 -210z" />
<glyph unicode="A" horiz-adv-x="854" d="M14 0l310 1364h204l310 -1364h-197l-72 334h-295l-71 -334h-189zM309 500h226l-113 559z" />
<glyph unicode="B" horiz-adv-x="913" d="M111 0v1364h395q315 0 315 -305v-111q0 -209 -174 -246q188 -37 189 -251v-146q0 -305 -320 -305h-405zM305 168h211q125 0 125 131v160q0 154 -145 153h-191v-444zM305 766h180q145 0 146 154v143q0 133 -123 133h-203v-430z" />
<glyph unicode="C" horiz-adv-x="909" d="M92 348v668q0 162 98.5 269.5t282.5 107.5t277.5 -99.5t93.5 -259.5v-147h-174v143q0 88 -49.5 139.5t-141.5 51.5q-94 0 -143 -50.5t-49 -132.5v-712q0 -82 49 -132.5t143 -50.5t142.5 50.5t48.5 140.5v143h174v-147q0 -160 -93.5 -260.5t-277.5 -100.5t-282.5 108.5 t-98.5 270.5z" />
<glyph unicode="D" horiz-adv-x="952" d="M111 0v1364h385q182 0 273 -100.5t91 -268.5v-626q0 -168 -91 -268.5t-273 -100.5h-385zM305 178h178q184 0 185 199v608q0 201 -185 201h-178v-1008z" />
<glyph unicode="E" horiz-adv-x="804" d="M111 0v1364h634v-176h-442v-389h320v-168h-320v-455h442v-176h-634z" />
<glyph unicode="F" horiz-adv-x="772" d="M111 0v1366h628v-176h-434v-420h334v-170h-334v-600h-194z" />
<glyph unicode="G" horiz-adv-x="927" d="M92 344v676q0 160 99.5 266.5t281.5 106.5q186 0 275.5 -100.5t89.5 -272.5v-80h-185v102q0 76 -45 127.5t-135 51.5t-138 -53.5t-48 -129.5v-712q0 -78 48 -131.5t138 -53.5q92 0 140.5 54.5t48.5 130.5v211h-183v163h367v-700h-96l-37 104q-72 -135 -267 -135 q-172 0 -263 105.5t-91 269.5z" />
<glyph unicode="H" horiz-adv-x="995" d="M111 0v1364h194v-592h387v592h193v-1364h-193v598h-387v-598h-194z" />
<glyph unicode="I" horiz-adv-x="413" d="M111 0v1364h194v-1364h-194z" />
<glyph unicode="J" horiz-adv-x="866" d="M59 326v217h183v-211q0 -188 166 -189q158 0 157 189v1032h195v-1016q0 -176 -85 -277.5t-261 -101.5q-172 0 -263.5 93.5t-91.5 263.5z" />
<glyph unicode="K" horiz-adv-x="907" d="M111 0v1364h192v-664l371 664h207l-344 -586l344 -778h-211l-258 608l-109 -186v-422h-192z" />
<glyph unicode="L" horiz-adv-x="763" d="M111 0v1364h192v-1188h432v-176h-624z" />
<glyph unicode="M" horiz-adv-x="1241" d="M111 0v1364h270l186 -852l56 -260l55 262l182 850h270v-1364h-176v1063l-55 -260l-186 -803h-191l-182 803l-57 260v-1063h-172z" />
<glyph unicode="N" horiz-adv-x="991" d="M109 0v1364h157l324 -676l108 -239v915h185v-1364h-138l-337 664l-115 239v-903h-184z" />
<glyph unicode="O" d="M92 360v644q0 174 98.5 281.5t282.5 107.5q186 0 283.5 -107.5t97.5 -281.5v-644q0 -176 -97.5 -283.5t-283.5 -107.5q-184 0 -282.5 108.5t-98.5 282.5zM287 344q0 -92 47 -146.5t139 -54.5t140.5 55.5t48.5 145.5v676q0 90 -48.5 145.5t-140.5 55.5t-139 -54.5 t-47 -146.5v-676z" />
<glyph unicode="P" horiz-adv-x="880" d="M111 0v1364h395q319 0 319 -315v-189q0 -150 -78.5 -231.5t-240.5 -81.5h-203v-547h-192zM303 713h205q123 0 123 141v201q0 141 -123 141h-205v-483z" />
<glyph unicode="Q" d="M92 344v676q0 160 98.5 266.5t282.5 106.5q182 0 280.5 -106.5t98.5 -266.5v-705q0 -96 -47 -168q41 -35 125 -34v-113q-41 -31 -109 -31q-78 0 -139 51q-92 -51 -209 -51q-184 0 -282.5 107.5t-98.5 267.5zM287 326q0 -76 48 -129.5t138 -53.5q59 0 107 27l-56 51 l135 107v710q0 76 -48 129.5t-138 53.5t-138 -53.5t-48 -129.5v-712z" />
<glyph unicode="R" horiz-adv-x="923" d="M111 0v1364h395q319 0 319 -305v-150q0 -104 -40 -162.5t-136 -76.5q90 -14 136 -82t46 -156v-248q0 -53 58 -53v-145h-43q-117 0 -162 40t-45 144v266q0 158 -141 158h-193v-594h-194zM305 741h180q145 0 146 156v166q0 133 -125 133h-201v-455z" />
<glyph unicode="S" horiz-adv-x="874" d="M61 315v95h193v-64q0 -211 184 -211q86 0 133 48t47 128q0 92 -48 159t-177 146q-141 90 -228 192.5t-87 235.5q0 152 96 250.5t264 98.5q164 0 263.5 -97.5t99.5 -248.5v-89h-185v64q0 92 -46 148.5t-138 56.5q-78 0 -120 -42t-42 -114q0 -90 51.5 -152.5t200.5 -158.5 q154 -100 221.5 -195.5t67.5 -224.5q0 -166 -105.5 -268.5t-269.5 -102.5q-168 0 -271.5 97t-103.5 249z" />
<glyph unicode="T" horiz-adv-x="806" d="M27 1186v178h753v-178h-278v-1186h-195v1186h-280z" />
<glyph unicode="U" horiz-adv-x="972" d="M106 326v1038h195v-1038q0 -186 186.5 -186.5t186.5 186.5v1038h192v-1038q0 -166 -105.5 -261.5t-275.5 -95.5t-274.5 95.5t-104.5 261.5z" />
<glyph unicode="V" horiz-adv-x="878" d="M25 1364h202l219 -1055l220 1055h196l-330 -1364h-186z" />
<glyph unicode="W" horiz-adv-x="1265" d="M25 1364h196l144 -1008l192 1008h176l176 -1008l150 1008h190l-252 -1364h-188l-172 940l-184 -940h-189z" />
<glyph unicode="X" horiz-adv-x="884" d="M29 0l317 694l-299 670h209l199 -506l200 506h199l-299 -662l313 -702h-209l-215 522l-217 -522h-198z" />
<glyph unicode="Y" horiz-adv-x="833" d="M-6 1364h209l223 -629l223 629h195l-328 -815v-549h-192v549z" />
<glyph unicode="Z" horiz-adv-x="845" d="M51 0v88l506 1098h-479v178h719v-88l-500 -1100h481v-176h-727z" />
<glyph unicode="[" horiz-adv-x="604" d="M207 -307v1849h399v-143h-241v-1565h241v-141h-399z" />
<glyph unicode="\" horiz-adv-x="536" d="M-4 1493h133l408 -1624h-131z" />
<glyph unicode="]" horiz-adv-x="604" d="M-2 -166h242v1565h-242v143h399v-1849h-399v141z" />
<glyph unicode="^" horiz-adv-x="563" d="M25 1124v54q133 0 184 186h149q51 -186 183 -186v-54q-47 -14 -90 -14q-63 0 -108.5 43t-63.5 117q-16 -74 -63.5 -117t-111.5 -43q-30 0 -79 14z" />
<glyph unicode="_" horiz-adv-x="690" d="M0 0h690v-156h-690v156z" />
<glyph unicode="`" horiz-adv-x="364" d="M39 1378h184l84 -276h-110z" />
<glyph unicode="a" horiz-adv-x="761" d="M61 231v23q0 78 35 136.5t100.5 93t134 55t161.5 34.5v134q0 119 -117 118q-68 0 -92.5 -29.5t-24.5 -97.5v-49h-162v56q0 119 71 194.5t208 75.5q281 0 280 -301v-508q0 -53 56 -53v-129h-52q-125 0 -127 118q-90 -119 -233 -118q-109 0 -173.5 66t-64.5 181zM223 238 q0 -49 28 -81t79 -32q63 0 112.5 42t49.5 103v183q-268 -33 -269 -191v-24z" />
<glyph unicode="b" horiz-adv-x="788" d="M98 0v1364h170v-528q72 139 221 139q104 0 161 -77t57 -202v-432q0 -129 -68 -204.5t-178 -75.5q-168 0 -223 147l-27 -131h-113zM268 279q0 -74 40 -116t98 -42q133 0 133 168v368q0 168 -129 168q-66 0 -104 -42t-38 -115v-389z" />
<glyph unicode="c" horiz-adv-x="731" d="M82 301v352q0 147 81 234.5t218 87.5t211 -84t74 -232v-41h-152v68q0 63 -34 102t-97 39q-133 0 -133 -151v-395q0 -150 133 -150q63 0 97 38t34 103v66h152v-41q0 -147 -74 -230t-211 -83q-139 0 -219 85t-80 232z" />
<glyph unicode="d" horiz-adv-x="788" d="M82 264v416q0 133 65.5 214t167.5 81q72 0 118 -26.5t87 -84.5v500h172v-1364h-127l-12 131q-57 -147 -223 -147q-111 0 -179.5 75.5t-68.5 204.5zM250 289q0 -168 133 -168q57 0 97 42t40 116v393q0 74 -37 116.5t-100 42.5q-133 0 -133 -167v-375z" />
<glyph unicode="e" horiz-adv-x="735" d="M82 301v352q0 147 81 234.5t218 87.5q135 0 210 -87t75 -235v-184h-416v-195q0 -68 33.5 -106.5t99.5 -38.5q63 0 97 39t34 106v66h152v-43q0 -147 -74 -230t-211 -83q-139 0 -219 85t-80 232zM250 567h264v115q0 66 -34 105.5t-97.5 39.5t-98 -39.5t-34.5 -105.5v-115z " />
<glyph unicode="f" horiz-adv-x="479" d="M39 805v143h111v101q0 150 64.5 232.5t188.5 82.5h70v-145h-47q-113 0 -113 -136v-135h142v-143h-131v-805h-174v805h-111z" />
<glyph unicode="g" horiz-adv-x="757" d="M57 -82q0 125 154 166q-66 16 -100.5 56t-34.5 89q0 51 42 96.5t101 53.5q-127 63 -127 246v61q0 123 84 206t207 83q43 0 85 -11.5t46 -11.5q109 0 109 115h120q6 -43 7 -84q0 -55 -29 -85t-68 -30q-45 0 -69 15q90 -78 90 -193v-72q0 -123 -81 -201.5t-210 -78.5 q-51 0 -82 10q-33 0 -57.5 -24.5t-24.5 -53.5q0 -80 205 -80q152 0 226.5 -57t74.5 -160v-45q0 -119 -91 -198.5t-241 -79.5q-145 0 -240.5 64.5t-95.5 168.5v35zM211 -51v-41q0 -49 46 -82t136 -33q88 0 132 35t44 84v41q0 102 -176 102q-90 0 -136 -29.5t-46 -76.5z M246 614q0 -61 36.5 -103t100.5 -42q61 0 98 42t37 103v80q0 61 -37 103.5t-98 42.5t-99 -42t-38 -104v-80z" />
<glyph unicode="h" horiz-adv-x="804" d="M98 0v1364h172v-567q31 86 93.5 131t132.5 45q98 0 157.5 -73t59.5 -193v-707h-174v700q0 61 -31 97.5t-84 36.5q-66 0 -110 -73t-44 -134v-627h-172z" />
<glyph unicode="i" horiz-adv-x="368" d="M98 0v958h172v-958h-172zM104 1112v182h160v-182h-160z" />
<glyph unicode="j" horiz-adv-x="368" d="M-29 -207h23q59 0 81.5 23.5t22.5 72.5v1069h172v-1021q0 -274 -235 -275h-64v131zM104 1112v182h160v-182h-160z" />
<glyph unicode="k" horiz-adv-x="755" d="M98 0v1364h172v-883l267 480h172l-226 -404l252 -557h-178l-180 424l-107 -172v-252h-172z" />
<glyph unicode="l" horiz-adv-x="368" d="M98 0v1364h172v-1364h-172z" />
<glyph unicode="m" horiz-adv-x="1130" d="M98 0v958h146l10 -163q68 178 215 178q131 0 174 -154q66 154 205 154q90 0 139 -64.5t49 -181.5v-727h-170v715q0 117 -90 116q-63 0 -92 -68.5t-29 -137.5v-625h-174v717q0 117 -86 117q-45 0 -74.5 -40t-40 -83t-10.5 -84v-627h-172z" />
<glyph unicode="n" horiz-adv-x="806" d="M98 0v958h144l12 -190q72 205 225 205q113 0 173.5 -72t60.5 -194v-707h-174v700q0 61 -31 97.5t-84 36.5q-68 0 -111 -73t-43 -134v-627h-172z" />
<glyph unicode="o" horiz-adv-x="765" d="M82 301v352q0 145 82 233.5t219 88.5t218 -87t81 -235v-352q0 -147 -80 -232t-219 -85t-220 85t-81 232zM252 272q0 -66 33.5 -103.5t97 -37.5t97.5 38t34 103v414q0 63 -34 102t-97.5 39t-97 -38.5t-33.5 -102.5v-414z" />
<glyph unicode="p" horiz-adv-x="788" d="M98 -332v1290h127l13 -131q55 147 223 148q111 0 177.5 -76t66.5 -205v-444q0 -117 -62.5 -191.5t-155.5 -74.5q-139 0 -219 110v-426h-170zM268 291q0 -74 37 -117t101 -43q131 0 131 170v369q0 168 -131 168q-57 0 -97.5 -42t-40.5 -118v-387z" />
<glyph unicode="q" horiz-adv-x="788" d="M82 248v442q0 129 67.5 206t180.5 77q168 0 223 -150l27 133h112v-1290h-172v455q-70 -139 -229 -139q-86 0 -147.5 75.5t-61.5 190.5zM250 297q0 -168 133 -168q63 0 100 42t37 118v387q0 76 -40 118t-97 42q-133 0 -133 -168v-371z" />
<glyph unicode="r" horiz-adv-x="540" d="M98 0v958h144l14 -170q35 115 98 155q43 27 103 27q28 0 59 -5v-174q-42 5 -77 5q-169 0 -169 -124v-672h-172z" />
<glyph unicode="s" horiz-adv-x="704" d="M66 264v47h143v-43q0 -145 147 -145q131 0 131 115q0 61 -33.5 101t-134.5 89q-240 100 -239 287q0 111 78 185.5t200 74.5q276 0 277 -264v-37h-139v41q0 113 -136 112q-57 0 -89.5 -26.5t-32.5 -71.5q0 -55 39.5 -94t150.5 -90q115 -49 166 -121t51 -174 q0 -111 -78 -188.5t-209 -77.5q-141 0 -216.5 76.5t-75.5 203.5z" />
<glyph unicode="t" horiz-adv-x="489" d="M35 805v143h121v172l163 56v-228h132v-143h-132v-504q0 -195 52 -301h-176q-49 104 -50 301v504h-110z" />
<glyph unicode="u" horiz-adv-x="808" d="M96 250v708h174v-702q0 -63 31 -99t84 -36q66 0 110 72.5t44 134.5v630h172v-958h-144l-12 164q-63 -180 -225 -180q-113 0 -173.5 71.5t-60.5 194.5z" />
<glyph unicode="v" horiz-adv-x="692" d="M16 958h170l119 -532l41 -217l43 217l115 532h170l-246 -958h-164z" />
<glyph unicode="w" horiz-adv-x="1017" d="M16 958h170l84 -528l35 -217l37 217l102 528h146l86 -528l37 -217l35 217l100 528h151l-211 -958h-151l-88 397l-39 217l-41 -217l-90 -397h-152z" />
<glyph unicode="x" horiz-adv-x="681" d="M20 0l244 479l-244 479h175l151 -337l152 337h172l-242 -479l242 -479h-174l-152 338l-151 -338h-173z" />
<glyph unicode="y" horiz-adv-x="692" d="M16 958h172l115 -530l41 -215l43 215l115 530h170l-260 -1021q-37 -145 -89.5 -210t-172.5 -65h-64v137h49q59 0 82 19.5t37 70.5l16 82z" />
<glyph unicode="z" horiz-adv-x="647" d="M47 0v104l377 713h-358v141h538v-104l-373 -713h361v-141h-545z" />
<glyph unicode="{" horiz-adv-x="655" d="M137 559v115h66q76 0 106.5 24.5t30.5 77.5q0 43 -41 119t-81 172t-40 186q0 125 77 207t224 82h72v-137h-74q-68 0 -101.5 -38t-33.5 -103q0 -84 68.5 -238t68.5 -205q0 -166 -178 -205q178 -39 178 -202q0 -53 -68.5 -206t-68.5 -237q0 -143 135 -143h74v-135h-72 q-147 0 -224 81t-77 206q0 90 40 186t81 173t41 118q0 53 -30.5 77.5t-106.5 24.5h-66z" />
<glyph unicode="|" horiz-adv-x="348" d="M111 -131v1624h127v-1624h-127z" />
<glyph unicode="}" horiz-adv-x="655" d="M106 -172h72q68 0 102.5 39t34.5 104q0 84 -69.5 236.5t-69.5 206.5q0 164 180 202q-180 39 -180 205q0 51 69.5 205t69.5 238q0 63 -34.5 102t-102.5 39h-72v137h70q147 0 225 -82t78 -207q0 -90 -41 -186t-82 -172t-41 -119q0 -53 31 -77.5t107 -24.5h65v-115h-65 q-76 0 -107 -24.5t-31 -77.5q0 -41 41 -118t82 -173t41 -186q0 -125 -77.5 -206t-225.5 -81h-70v135z" />
<glyph unicode="~" horiz-adv-x="581" d="M25 643q0 154 139 154q55 0 144 -54.5t108 -54.5q39 0 39 45v68h75q27 -35 27 -84q0 -152 -139 -152q-53 0 -142.5 54.5t-109.5 54.5q-37 0 -37 -43v-68h-78q-26 39 -26 80z" />
<glyph horiz-adv-x="325" d="M43 -135q53 0 83 36t30 99h-76v231h168v-204q0 -102 -51.5 -162t-153.5 -60v60z" />
<glyph horiz-adv-x="602" d="M76 633v153h143v261q0 317 246 317h59v-156h-24q-59 0 -81 -23.5t-22 -78.5v-320h154v-153h-154v-352q0 -315 -243 -316h-60v156h23q59 0 80.5 22.5t21.5 79.5v410h-143z" />
<glyph horiz-adv-x="575" d="M43 -135q53 0 83 36t30 99h-76v231h168v-204q0 -102 -51.5 -162t-153.5 -60v60zM291 -135q53 0 82.5 36t29.5 99h-77v231h168v-204q0 -102 -50.5 -162t-152.5 -60v60z" />
<glyph unicode="&#x85;" horiz-adv-x="1062" d="M111 0v231h168v-231h-168zM446 0v231h168v-231h-168zM784 0v231h168v-231h-168z" />
<glyph horiz-adv-x="780" d="M33 862v99q0 23 28 22q188 0 279 -22q-25 90 -25 374q0 29 25 29h98q27 0 27 -29q0 -274 -25 -374q88 23 277 22q29 0 28 -22v-99q0 -25 -28 -24q-186 0 -279 24q27 -98 27 -354q0 -453 -21 -627q0 -29 -24 -28h-62q-25 0 -24 28q-18 188 -19 627q0 254 25 354 q-90 -25 -279 -24q-28 -1 -28 24z" />
<glyph horiz-adv-x="780" d="M33 256v98q0 25 28 25q176 0 279 -25q-25 100 -25 254t25 254q-90 -25 -279 -24q-29 0 -28 24v99q0 23 28 22q188 0 279 -22q-25 90 -25 374q0 29 25 29h98q27 0 27 -29q0 -274 -25 -374q88 23 277 22q29 0 28 -22v-99q0 -25 -28 -24q-186 0 -279 24q27 -98 27 -253.5 t-27 -254.5q104 25 279 25q29 0 28 -25v-98q0 -25 -28 -25q-180 0 -277 25q25 -104 25 -375q0 -29 -27 -28h-98q-25 0 -25 28q0 283 25 375q-98 -25 -279 -25q-28 0 -28 25z" />
<glyph horiz-adv-x="563" d="M25 1122v52q133 0 184 188h149q51 -188 183 -188v-52q-47 -14 -90 -14q-63 0 -108.5 43t-63.5 117q-16 -74 -63.5 -117t-111.5 -43q-30 0 -79 14z" />
<glyph horiz-adv-x="1650" d="M70 899v285q0 94 56 151.5t144 57.5q90 0 146.5 -57.5t56.5 -151.5v-285q0 -96 -56.5 -153.5t-146.5 -57.5q-88 0 -144 57.5t-56 153.5zM117 16l864 1391l80 -61l-864 -1391zM199 868q0 -31 19.5 -49t52 -18t53 18.5t20.5 48.5v346q0 29 -20.5 49.5t-53 20.5t-52 -19.5 t-19.5 -50.5v-346zM705 180v283q0 96 57 153.5t145 57.5q90 0 146.5 -57.5t56.5 -153.5v-283q0 -98 -56.5 -155.5t-146.5 -57.5q-88 0 -145 57.5t-57 155.5zM834 147q0 -29 20 -48t53 -19t53.5 19.5t20.5 47.5v349q0 29 -20.5 48t-53.5 19t-53 -19.5t-20 -47.5v-349z M1200 180v283q0 96 57.5 153.5t145.5 57.5q90 0 146.5 -57.5t56.5 -153.5v-283q0 -98 -56.5 -155.5t-146.5 -57.5q-88 0 -145.5 57.5t-57.5 155.5zM1329 147q0 -29 20.5 -48t53.5 -19t53.5 19.5t20.5 47.5v349q0 29 -20.5 48t-53.5 19t-53.5 -19.5t-20.5 -47.5v-349z" />
<glyph horiz-adv-x="874" />
<glyph horiz-adv-x="491" d="M47 326v141q102 31 178 121t101 205h100q0 -121 -58.5 -229.5t-156.5 -168.5q98 -59 156.5 -166.5t58.5 -228.5h-100q-25 115 -101 205t-178 121z" />
<glyph horiz-adv-x="1343" d="M92 395v574q0 182 97.5 288.5t289.5 106.5h805v-176h-440v-389h319v-168h-319v-455h440v-176h-805q-193 0 -290 106.5t-97 288.5zM287 395q0 -113 49 -166t151 -53h162v1010h-162q-104 0 -152 -52.5t-48 -166.5v-572z" />
<glyph horiz-adv-x="845" />
<glyph horiz-adv-x="325" d="M78 940v205q0 102 50 161.5t153 59.5v-59q-111 0 -111 -136h76v-231h-168z" />
<glyph horiz-adv-x="325" d="M43 940v59q53 0 83 35t30 99h-76v231h168v-205q0 -100 -51.5 -159.5t-153.5 -59.5z" />
<glyph horiz-adv-x="575" d="M78 940v205q0 102 50 161.5t153 59.5v-59q-111 0 -111 -136h76v-231h-168zM326 940v205q0 102 50 161.5t152 59.5v-59q-53 0 -82.5 -36t-29.5 -100h78v-231h-168z" />
<glyph horiz-adv-x="575" d="M43 940v59q53 0 83 35t30 99h-76v231h168v-205q0 -100 -51.5 -159.5t-153.5 -59.5zM291 940v59q53 0 82.5 35t29.5 99h-77v231h168v-205q0 -100 -50.5 -159.5t-152.5 -59.5z" />
<glyph horiz-adv-x="604" d="M63 682q0 111 68 176.5t172.5 65.5t171 -65.5t66.5 -176.5t-66.5 -176.5t-171 -65.5t-172.5 65.5t-68 176.5z" />
<glyph horiz-adv-x="972" d="M129 551v156h717v-156h-717z" />
<glyph horiz-adv-x="1460" d="M129 551v156h1204v-156h-1204z" />
<glyph horiz-adv-x="581" d="M25 1212q0 152 139 152q55 0 144 -54.5t108 -54.5q39 0 39 45v68h75q27 -35 27 -84q0 -152 -139 -151q-53 0 -142.5 54t-109.5 54q-37 0 -37 -43v-68h-78q-26 41 -26 82z" />
<glyph horiz-adv-x="1202" d="M47 1274v90h418v-90h-156v-451h-106v451h-156zM563 823v541h146l92 -301l35 -141l38 141l87 301h149v-541h-98v439l-39 -152l-90 -287h-97l-88 287l-39 152v-439h-96z" />
<glyph horiz-adv-x="704" />
<glyph horiz-adv-x="491" d="M70 0q0 121 57 228.5t158 166.5q-100 59 -157.5 168t-57.5 230h98q25 -115 100.5 -205t177.5 -121v-141q-102 -31 -177.5 -121t-100.5 -205h-98z" />
<glyph horiz-adv-x="1167" d="M82 301v352q0 143 81 232.5t199 89.5q164 0 236 -129q74 129 233 129q121 0 194 -88t73 -234v-184h-416v-195q0 -68 34 -106.5t97 -38.5q66 0 99.5 39t33.5 106v66h152v-43q0 -145 -73 -229t-194 -84q-160 0 -233 127q-70 -127 -236 -127q-121 0 -200.5 87t-79.5 230z M250 272q0 -66 34.5 -103.5t96.5 -37.5q63 0 98 38t35 103v414q0 63 -35 102t-98 39q-61 0 -96 -38.5t-35 -102.5v-414zM682 567h264v115q0 66 -34.5 105.5t-98 39.5t-97.5 -39.5t-34 -105.5v-115z" />
<glyph horiz-adv-x="647" />
<glyph horiz-adv-x="833" d="M-6 1364h209l223 -629l223 629h195l-328 -815v-549h-192v549zM207 1499v184h153v-184h-153zM473 1499v184h154v-184h-154z" />
<glyph unicode="&#xa1;" horiz-adv-x="391" d="M102 188l68 390h53l68 -390v-594h-189v594zM111 731v227h170v-227h-170z" />
<glyph unicode="&#xa2;" horiz-adv-x="749" d="M96 487v390q0 117 62.5 195.5t167.5 98.5v193h147v-197q96 -23 150.5 -99.5t54.5 -190.5v-54h-158v76q0 59 -32.5 95t-92.5 36q-57 0 -90 -36t-33 -95v-430q0 -61 33 -96t90 -35q59 0 92 35t33 96v74h158v-56q0 -115 -54.5 -191.5t-150.5 -98.5v-197h-147v193 q-104 23 -167 100t-63 194z" />
<glyph unicode="&#xa3;" horiz-adv-x="972" d="M-6 147q0 86 56 140.5t159 54.5q66 0 141 -51q51 72 51 178q0 82 -39 143h-256v156h187q-68 145 -68 268q0 152 88 255.5t256 103.5q154 0 239 -94.5t85 -231.5v-98h-164v71q0 86 -41 137.5t-121 51.5q-162 0 -161 -191q0 -123 79 -272h273v-156h-207q20 -78 20 -135 q0 -143 -86 -274q88 -70 168 -70q109 0 109 119v160h164v-144q0 -299 -246 -299q-168 0 -287 105q-88 -104 -207 -105q-88 0 -140 50t-52 128zM133 160q0 -20 16.5 -35.5t45.5 -15.5q61 0 94 57q-53 45 -94 45q-29 0 -45.5 -14t-16.5 -37z" />
<glyph unicode="&#xa4;" horiz-adv-x="892" d="M92 346v672q0 162 92 269.5t275 107.5q184 0 277 -99.5t93 -261.5v-104h-172v96q0 92 -49 143.5t-143 51.5t-143.5 -51.5t-49.5 -135.5v-270h430v-164h-430v-270q0 -86 49.5 -136.5t143.5 -50.5t143 51.5t49 143.5v96h172v-104q0 -162 -93 -261.5t-277 -99.5 q-182 0 -274.5 107.5t-92.5 269.5z" />
<glyph unicode="&#xa5;" horiz-adv-x="886" d="M41 1364h201l202 -582l203 582h199l-254 -633h211v-160h-273v-137h273v-164h-273v-270h-182v270h-276v164h276v137h-276v160h219z" />
<glyph unicode="&#xa7;" horiz-adv-x="886" d="M68 -8v57h176v-67q0 -70 52 -112t140 -42q193 0 193 137q0 59 -56.5 113.5t-137.5 100.5l-161 96q-80 50 -136 123t-56 161q0 152 149 264q-129 111 -129 252q0 135 88.5 227.5t255.5 92.5q180 0 267.5 -93.5t87.5 -238.5v-47h-174v61q0 154 -183 154q-156 0 -155 -144 q0 -59 55 -112t134 -99l158 -97q79 -50 134 -123.5t55 -161.5q0 -176 -143 -267q129 -113 129 -250q0 -129 -96.5 -219t-265.5 -90q-180 0 -280.5 86t-100.5 238zM258 604q0 -74 56.5 -130t252.5 -159q39 18 65.5 55.5t26.5 84.5q0 72 -65.5 136t-243.5 157 q-41 -18 -66.5 -59.5t-25.5 -84.5z" />
<glyph unicode="&#xa8;" horiz-adv-x="473" d="M27 1159v184h153v-184h-153zM293 1159v184h153v-184h-153z" />
<glyph unicode="&#xa9;" horiz-adv-x="1392" d="M45 667.5q0 272.5 187.5 464t464 191.5t464 -191.5t187.5 -464t-187.5 -463t-464 -190.5t-464 190.5t-187.5 463zM147 668q0 -236 155 -399t394.5 -163t394 163t154.5 399q0 238 -154.5 399.5t-394 161.5t-394.5 -161.5t-155 -399.5zM485 553v229q0 84 61.5 138.5 t160.5 54.5q96 0 153.5 -52.5t57.5 -136.5v-38h-101v36q0 45 -28.5 74t-79.5 29q-53 0 -81 -30t-28 -77v-225q0 -45 27.5 -75.5t81.5 -30.5q51 0 79.5 28.5t28.5 73.5v39h101v-41q0 -84 -57.5 -136.5t-153.5 -52.5q-98 0 -160 54.5t-62 138.5z" />
<glyph unicode="&#xaa;" horiz-adv-x="643" d="M63 829v15q0 117 95.5 170t255.5 71v101q0 92 -97 92q-55 0 -74.5 -23.5t-19.5 -76.5v-31h-131v37q0 92 57.5 150.5t167.5 58.5q227 0 228 -236v-375q0 -23 10 -31t47 -8v-104h-55q-100 0 -101 94q-74 -94 -192 -94q-88 0 -139.5 51t-51.5 139zM193 838q0 -39 22.5 -63.5 t65.5 -24.5q51 0 92 31.5t41 78.5v137q-221 -27 -221 -145v-14z" />
<glyph unicode="&#xab;" horiz-adv-x="841" d="M47 326v141q102 31 178 121t101 205h100q0 -121 -58.5 -229.5t-156.5 -168.5q98 -59 156.5 -166.5t58.5 -228.5h-100q-25 115 -101 205t-178 121zM397 326v141q102 31 178 121t101 205h100q0 -121 -58.5 -229.5t-156.5 -168.5q98 -59 156.5 -166.5t58.5 -228.5h-100 q-25 115 -101 205t-178 121z" />
<glyph unicode="&#xac;" horiz-adv-x="778" d="M100 508l181 182l-181 182l109 107l182 -182l180 182l107 -107l-182 -180l182 -182l-109 -109l-182 183l-180 -183z" />
<glyph unicode="&#xad;" horiz-adv-x="557" d="M63 551v156h431v-156h-431z" />
<glyph unicode="&#xae;" horiz-adv-x="1392" d="M45 667.5q0 272.5 187.5 464t464 191.5t464 -191.5t187.5 -464t-187.5 -463t-464 -190.5t-464 190.5t-187.5 463zM147 668q0 -236 155 -399t394.5 -163t394 163t154.5 399q0 238 -154.5 399.5t-394 161.5t-394.5 -161.5t-155 -399.5zM504 381v582h237q174 0 174 -162v-10 q0 -109 -98 -127q51 -4 77 -40t26 -83v-60q0 -27 32 -26v-80h-30q-66 0 -90.5 20.5t-24.5 75.5v68q0 86 -78 86h-113v-244h-112zM616 702h105q82 0 82 82v19q0 72 -72 71h-115v-172z" />
<glyph unicode="&#xaf;" horiz-adv-x="514" d="M23 1171v123h469v-123h-469z" />
<glyph unicode="&#xb0;" horiz-adv-x="579" d="M39 1149q0 100 71.5 173t180 73t179.5 -73t71 -173t-71 -172t-179.5 -72t-180 72t-71.5 172zM168 1149q0 -61 32.5 -98t90 -37t90.5 36.5t33 98.5q0 59 -33 97t-90.5 38t-90 -38t-32.5 -97z" />
<glyph unicode="&#xb1;" horiz-adv-x="1038" d="M49 0v983h940v-983h-940zM154 100h731v783h-731v-783z" />
<glyph unicode="&#xb2;" horiz-adv-x="802" d="M57 0v74q0 160 57.5 289t229.5 303q131 123 185.5 207.5t54.5 183.5q0 178 -168 178q-170 0 -170 -184v-125h-164v127q0 145 86 243.5t246 98.5q174 0 258 -97.5t84 -248.5q0 -246 -316 -504q-190 -193 -190 -369h493v-176h-686z" />
<glyph unicode="&#xb3;" horiz-adv-x="815" d="M74 293v123h164v-101q0 -186 163 -186q170 0 170 176v191q0 125 -147 125h-107v147h107q147 0 147 125v164q0 178 -170 178q-164 0 -163 -186v-101h-164v123q0 141 85 232.5t246.5 91.5t252 -89t90.5 -239v-139q0 -88 -43 -149.5t-119 -76.5q162 -43 162 -217v-188 q0 -150 -90.5 -239t-252 -89t-246.5 91.5t-85 232.5z" />
<glyph unicode="&#xb4;" horiz-adv-x="364" d="M86 1102l86 276h182l-155 -276h-113z" />
<glyph unicode="&#xb6;" horiz-adv-x="1122" d="M82 860v33q0 211 123 341t309 130h498v-1683h-140v1529h-137v-1529h-141v710h-80q-186 0 -309 130t-123 339zM397 731q0 -84 43 -128t115 -44h39v651h-39q-72 0 -115 -49t-43 -135v-295z" />
<glyph unicode="&#xb7;" horiz-adv-x="325" d="M80 565v232h168v-232h-168z" />
<glyph unicode="&#xb8;" horiz-adv-x="391" d="M20 -203l175 244l65 -47l-100 -137q18 14 71 14q78 0 120 -48t42 -126q0 -72 -51 -121t-129 -49q-53 0 -76 18v66h43q82 0 82 70v49q0 76 -82 75q-51 0 -96 -53z" />
<glyph unicode="&#xb9;" horiz-adv-x="464" d="M139 0v1276q88 0 88 88h97v-1364h-185z" />
<glyph unicode="&#xba;" horiz-adv-x="600" d="M57 883v266q0 111 69 177.5t175.5 66.5t175 -66.5t68.5 -177.5v-266q0 -111 -68.5 -177.5t-175 -66.5t-175.5 66.5t-69 177.5zM193 854q0 -47 29.5 -76.5t78.5 -29.5q47 0 77 29.5t30 76.5v324q0 47 -30 77.5t-77 30.5q-49 0 -78.5 -30.5t-29.5 -77.5v-324z" />
<glyph unicode="&#xbb;" horiz-adv-x="841" d="M68 0q0 121 57 228.5t158 166.5q-100 59 -157.5 168t-57.5 230h98q25 -115 100.5 -205t177.5 -121v-141q-102 -31 -178 -121t-100 -205h-98zM418 0q0 121 57 228.5t158 166.5q-100 59 -157.5 168t-57.5 230h98q25 -115 100.5 -205t178.5 -121v-141q-102 -31 -178 -121 t-101 -205h-98z" />
<glyph unicode="&#xbf;" horiz-adv-x="675" d="M-31 -96q0 213 207 409q63 59 85 109.5t22 126.5h137q0 -113 -35 -180.5t-154 -225.5q-80 -111 -79 -235q0 -98 37.5 -141t119.5 -43q160 0 160 194v127h164v-145q0 -150 -80 -242t-238 -92q-178 0 -262 95.5t-84 242.5zM272 731v227h168v-227h-168z" />
<glyph unicode="&#xc0;" horiz-adv-x="854" d="M14 0l310 1364h204l310 -1364h-197l-72 334h-295l-71 -334h-189zM205 1718h184l84 -276h-111zM309 500h226l-113 559z" />
<glyph unicode="&#xc1;" horiz-adv-x="854" d="M14 0l310 1364h204l310 -1364h-197l-72 334h-295l-71 -334h-189zM309 500h226l-113 559zM362 1442l87 276h182l-156 -276h-113z" />
<glyph unicode="&#xc2;" horiz-adv-x="854" d="M14 0l310 1364h204l310 -1364h-197l-72 334h-295l-71 -334h-189zM164 1462v51q133 0 184 189h150q51 -188 182 -189v-51q-47 -14 -90 -14q-63 0 -108.5 43t-63.5 117q-16 -74 -63.5 -117t-110.5 -43q-31 0 -80 14zM309 500h226l-113 559z" />
<glyph unicode="&#xc3;" horiz-adv-x="854" d="M14 0l310 1364h204l310 -1364h-197l-72 334h-295l-71 -334h-189zM143 1552q0 152 140 152q55 0 144 -54.5t108 -54.5q39 0 38 45v68h76q27 -35 27 -84q0 -152 -139 -151q-53 0 -142.5 54t-109.5 54q-37 0 -37 -43v-68h-78q-27 41 -27 82zM309 500h226l-113 559z" />
<glyph unicode="&#xc4;" horiz-adv-x="854" d="M14 0l310 1364h204l310 -1364h-197l-72 334h-295l-71 -334h-189zM199 1499v184h153v-184h-153zM309 500h226l-113 559zM465 1499v184h153v-184h-153z" />
<glyph unicode="&#xc5;" horiz-adv-x="854" d="M14 0l310 1364h34q-45 18 -72.5 60t-27.5 92q0 68 48 116.5t120 48.5t119 -49t47 -116q0 -49 -27.5 -91.5t-72.5 -60.5h36l310 -1364h-197l-72 334h-295l-71 -334h-189zM309 500h226l-113 559zM344 1515.5q0 -40.5 21.5 -66.5t60.5 -26t60.5 26t21.5 66.5t-21.5 66.5 t-60.5 26t-60.5 -26t-21.5 -66.5z" />
<glyph unicode="&#xc6;" horiz-adv-x="1296" d="M10 0l518 1364h711v-176h-442v-389h319v-168h-319v-455h442v-176h-635v334h-270l-125 -334h-199zM397 502h207v612z" />
<glyph unicode="&#xc7;" horiz-adv-x="909" d="M92 348v668q0 162 98.5 269.5t282.5 107.5t277.5 -99.5t93.5 -259.5v-147h-174v143q0 88 -49.5 139.5t-141.5 51.5q-94 0 -143 -50.5t-49 -132.5v-712q0 -82 49 -132.5t143 -50.5t142.5 50.5t48.5 140.5v143h174v-147q0 -156 -90 -256.5t-267 -104.5l-81 -112 q20 14 73 14q78 0 120 -48t42 -126q0 -72 -51 -121t-129 -49q-53 0 -76 18v66h41q84 0 84 70v49q0 76 -84 75q-51 0 -96 -53l-62 45l127 178q-145 25 -224 128.5t-79 244.5z" />
<glyph unicode="&#xc8;" horiz-adv-x="804" d="M111 0v1364h634v-176h-442v-389h320v-168h-320v-455h442v-176h-634zM227 1718h185l84 -276h-111z" />
<glyph unicode="&#xc9;" horiz-adv-x="804" d="M111 0v1364h634v-176h-442v-389h320v-168h-320v-455h442v-176h-634zM346 1442l86 276h182l-155 -276h-113z" />
<glyph unicode="&#xca;" horiz-adv-x="804" d="M111 0v1364h634v-176h-442v-389h320v-168h-320v-455h442v-176h-634zM160 1462v51q133 0 184 189h150q51 -188 182 -189v-51q-47 -14 -90 -14q-63 0 -108.5 43t-63.5 117q-16 -74 -63.5 -117t-110.5 -43q-31 0 -80 14z" />
<glyph unicode="&#xcb;" horiz-adv-x="804" d="M111 0v1364h634v-176h-442v-389h320v-168h-320v-455h442v-176h-634zM207 1499v184h153v-184h-153zM473 1499v184h154v-184h-154z" />
<glyph unicode="&#xcc;" horiz-adv-x="413" d="M-8 1718h184l84 -276h-110zM111 0v1364h194v-1364h-194z" />
<glyph unicode="&#xcd;" horiz-adv-x="413" d="M111 0v1364h194v-1364h-194zM139 1442l86 276h183l-156 -276h-113z" />
<glyph unicode="&#xce;" horiz-adv-x="413" d="M-51 1462v51q133 0 184 189h150q51 -188 182 -189v-51q-47 -14 -90 -14q-63 0 -108.5 43t-63.5 117q-16 -74 -63.5 -117t-110.5 -43q-29 0 -80 14zM111 0v1364h194v-1364h-194z" />
<glyph unicode="&#xcf;" horiz-adv-x="413" d="M-6 1499v184h153v-184h-153zM111 0v1364h194v-1364h-194zM260 1499v184h154v-184h-154z" />
<glyph unicode="&#xd0;" horiz-adv-x="1040" d="M12 600v162h187v602h383q182 0 274 -101.5t92 -267.5v-626q0 -166 -92 -267.5t-274 -101.5h-383v600h-187zM391 176h178q186 0 187 201v608q0 201 -187 201h-178v-424h180v-162h-180v-424z" />
<glyph unicode="&#xd1;" horiz-adv-x="991" d="M109 0v1364h157l324 -676l108 -239v915h185v-1364h-138l-337 664l-115 239v-903h-184zM215 1552q0 152 139 152q55 0 144.5 -54.5t107.5 -54.5q39 0 39 45v68h76q27 -35 27 -84q0 -152 -140 -151q-53 0 -142 54t-110 54q-37 0 -37 -43v-68h-77q-27 41 -27 82z" />
<glyph unicode="&#xd2;" d="M92 360v644q0 174 98.5 281.5t282.5 107.5q186 0 283.5 -107.5t97.5 -281.5v-644q0 -176 -97.5 -283.5t-283.5 -107.5q-184 0 -282.5 108.5t-98.5 282.5zM256 1718h184l84 -276h-110zM287 344q0 -92 47 -146.5t139 -54.5t140.5 55.5t48.5 145.5v676q0 90 -48.5 145.5 t-140.5 55.5t-139 -54.5t-47 -146.5v-676z" />
<glyph unicode="&#xd3;" d="M92 360v644q0 174 98.5 281.5t282.5 107.5q186 0 283.5 -107.5t97.5 -281.5v-644q0 -176 -97.5 -283.5t-283.5 -107.5q-184 0 -282.5 108.5t-98.5 282.5zM287 344q0 -92 47 -146.5t139 -54.5t140.5 55.5t48.5 145.5v676q0 90 -48.5 145.5t-140.5 55.5t-139 -54.5 t-47 -146.5v-676zM412 1442l86 276h182l-156 -276h-112z" />
<glyph unicode="&#xd4;" d="M92 360v644q0 174 98.5 281.5t282.5 107.5q186 0 283.5 -107.5t97.5 -281.5v-644q0 -176 -97.5 -283.5t-283.5 -107.5q-184 0 -282.5 108.5t-98.5 282.5zM217 1462v51q133 0 184 189h150q51 -188 182 -189v-51q-47 -14 -90 -14q-63 0 -108.5 43t-63.5 117 q-16 -74 -63.5 -117t-110.5 -43q-31 0 -80 14zM287 344q0 -92 47 -146.5t139 -54.5t140.5 55.5t48.5 145.5v676q0 90 -48.5 145.5t-140.5 55.5t-139 -54.5t-47 -146.5v-676z" />
<glyph unicode="&#xd5;" d="M92 360v644q0 174 98.5 281.5t282.5 107.5q186 0 283.5 -107.5t97.5 -281.5v-644q0 -176 -97.5 -283.5t-283.5 -107.5q-184 0 -282.5 108.5t-98.5 282.5zM190 1552q0 152 140 152q55 0 144 -54.5t108 -54.5q39 0 39 45v68h75q27 -35 27 -84q0 -152 -139 -151 q-53 0 -142.5 54t-109.5 54q-37 0 -37 -43v-68h-78q-27 41 -27 82zM287 344q0 -92 47 -146.5t139 -54.5t140.5 55.5t48.5 145.5v676q0 90 -48.5 145.5t-140.5 55.5t-139 -54.5t-47 -146.5v-676z" />
<glyph unicode="&#xd6;" d="M92 360v644q0 174 98.5 281.5t282.5 107.5q186 0 283.5 -107.5t97.5 -281.5v-644q0 -176 -97.5 -283.5t-283.5 -107.5q-184 0 -282.5 108.5t-98.5 282.5zM266 1499v184h154v-184h-154zM287 344q0 -92 47 -146.5t139 -54.5t140.5 55.5t48.5 145.5v676q0 90 -48.5 145.5 t-140.5 55.5t-139 -54.5t-47 -146.5v-676zM532 1499v184h154v-184h-154z" />
<glyph unicode="&#xd7;" horiz-adv-x="778" d="M100 508l181 182l-181 182l109 107l182 -182l180 182l107 -107l-182 -180l182 -182l-109 -109l-182 183l-180 -183z" />
<glyph unicode="&#xd8;" d="M66 6l6 11.5l13 25.5l17 36q8 17 18 34l15 26l4 11q-47 88 -47 210v644q0 174 98.5 281.5t282.5 107.5q156 0 254 -82l55 108l99 -61l-74 -146q47 -86 47 -208v-644q0 -176 -97.5 -283.5t-283.5 -107.5q-154 0 -254 80l-14 -24l-25 -54l-14 -26zM287 442l350 691 q-47 88 -164 88q-92 0 -139 -54.5t-47 -146.5v-578zM311 231q47 -88 162 -88q92 0 140.5 55.5t48.5 145.5v580l-89 -174l-174 -344z" />
<glyph unicode="&#xd9;" horiz-adv-x="972" d="M106 326v1038h195v-1038q0 -186 186.5 -186.5t186.5 186.5v1038h192v-1038q0 -166 -105.5 -261.5t-275.5 -95.5t-274.5 95.5t-104.5 261.5zM291 1718h184l84 -276h-110z" />
<glyph unicode="&#xda;" horiz-adv-x="972" d="M106 326v1038h195v-1038q0 -186 186.5 -186.5t186.5 186.5v1038h192v-1038q0 -166 -105.5 -261.5t-275.5 -95.5t-274.5 95.5t-104.5 261.5zM426 1442l86 276h182l-155 -276h-113z" />
<glyph unicode="&#xdb;" horiz-adv-x="972" d="M106 326v1038h195v-1038q0 -186 186.5 -186.5t186.5 186.5v1038h192v-1038q0 -166 -105.5 -261.5t-275.5 -95.5t-274.5 95.5t-104.5 261.5zM242 1462v51q133 0 184 189h149q51 -188 183 -189v-51q-47 -14 -90 -14q-63 0 -108.5 43t-63.5 117q-16 -74 -63.5 -117 t-110.5 -43q-31 0 -80 14z" />
<glyph unicode="&#xdc;" horiz-adv-x="972" d="M106 326v1038h195v-1038q0 -186 186.5 -186.5t186.5 186.5v1038h192v-1038q0 -166 -105.5 -261.5t-275.5 -95.5t-274.5 95.5t-104.5 261.5zM285 1499v184h153v-184h-153zM551 1499v184h154v-184h-154z" />
<glyph unicode="&#xdd;" horiz-adv-x="833" d="M-6 1364h209l223 -629l223 629h195l-328 -815v-549h-192v549zM373 1442l86 276h182l-156 -276h-112z" />
<glyph unicode="&#xde;" horiz-adv-x="880" d="M111 0v1364h194v-238h201q162 0 240.5 -82.5t78.5 -232.5v-188q0 -313 -319 -314h-201v-309h-194zM305 475h203q123 0 123 141v199q0 143 -123 143h-203v-483z" />
<glyph unicode="&#xdf;" horiz-adv-x="788" d="M106 0v1042q0 145 75 233.5t214 88.5q150 0 226.5 -81t76.5 -218v-117q0 -74 -30.5 -133t-85.5 -84q123 -51 123 -215v-278q0 -121 -68 -187.5t-180 -66.5q-53 0 -82 22v72q160 0 160 135v340q0 111 -154 111v114q145 0 145 121v176q0 139 -122.5 139t-122.5 -145v-1069 h-175z" />
<glyph unicode="&#xe0;" horiz-adv-x="761" d="M61 231v23q0 78 35 136.5t100.5 93t134 55t161.5 34.5v134q0 119 -117 118q-68 0 -92.5 -29.5t-24.5 -97.5v-49h-162v56q0 119 71 194.5t208 75.5q281 0 280 -301v-508q0 -53 56 -53v-129h-52q-125 0 -127 118q-90 -119 -233 -118q-109 0 -173.5 66t-64.5 181zM156 1378 h184l84 -276h-111zM223 238q0 -49 28 -81t79 -32q63 0 112.5 42t49.5 103v183q-268 -33 -269 -191v-24z" />
<glyph unicode="&#xe1;" horiz-adv-x="761" d="M61 231v23q0 78 35 136.5t100.5 93t134 55t161.5 34.5v134q0 119 -117 118q-68 0 -92.5 -29.5t-24.5 -97.5v-49h-162v56q0 119 71 194.5t208 75.5q281 0 280 -301v-508q0 -53 56 -53v-129h-52q-125 0 -127 118q-90 -119 -233 -118q-109 0 -173.5 66t-64.5 181zM223 238 q0 -49 28 -81t79 -32q63 0 112.5 42t49.5 103v183q-268 -33 -269 -191v-24zM309 1102l86 276h183l-156 -276h-113z" />
<glyph unicode="&#xe2;" horiz-adv-x="761" d="M61 231v23q0 78 35 136.5t100.5 93t134 55t161.5 34.5v134q0 119 -117 118q-68 0 -92.5 -29.5t-24.5 -97.5v-49h-162v56q0 119 71 194.5t208 75.5q281 0 280 -301v-508q0 -53 56 -53v-129h-52q-125 0 -127 118q-90 -119 -233 -118q-109 0 -173.5 66t-64.5 181zM123 1122 v52q133 0 184 188h150q51 -188 182 -188v-52q-47 -14 -90 -14q-63 0 -108.5 43t-63.5 117q-16 -74 -63.5 -117t-110.5 -43q-31 0 -80 14zM223 238q0 -49 28 -81t79 -32q63 0 112.5 42t49.5 103v183q-268 -33 -269 -191v-24z" />
<glyph unicode="&#xe3;" horiz-adv-x="761" d="M61 231v23q0 78 35 136.5t100.5 93t134 55t161.5 34.5v134q0 119 -117 118q-68 0 -92.5 -29.5t-24.5 -97.5v-49h-162v56q0 119 71 194.5t208 75.5q281 0 280 -301v-508q0 -53 56 -53v-129h-52q-125 0 -127 118q-90 -119 -233 -118q-109 0 -173.5 66t-64.5 181zM98 1212 q0 152 140 152q55 0 144 -54.5t107 -54.5q39 0 39 45v68h76q27 -35 27 -84q0 -152 -139 -151q-53 0 -142.5 54t-109.5 54q-37 0 -37 -43v-68h-78q-27 41 -27 82zM223 238q0 -49 28 -81t79 -32q63 0 112.5 42t49.5 103v183q-268 -33 -269 -191v-24z" />
<glyph unicode="&#xe4;" horiz-adv-x="761" d="M61 231v23q0 78 35 136.5t100.5 93t134 55t161.5 34.5v134q0 119 -117 118q-68 0 -92.5 -29.5t-24.5 -97.5v-49h-162v56q0 119 71 194.5t208 75.5q281 0 280 -301v-508q0 -53 56 -53v-129h-52q-125 0 -127 118q-90 -119 -233 -118q-109 0 -173.5 66t-64.5 181zM156 1159 v184h153v-184h-153zM223 238q0 -49 28 -81t79 -32q63 0 112.5 42t49.5 103v183q-268 -33 -269 -191v-24zM422 1159v184h153v-184h-153z" />
<glyph unicode="&#xe5;" horiz-adv-x="761" />
<glyph unicode="&#xe6;" horiz-adv-x="1144" d="M63 231v23q0 78 35 136.5t100.5 93t135 55t162.5 34.5v121q0 131 -121 131q-125 0 -125 -127v-49h-150v56q0 117 70 193.5t188 76.5q156 0 220 -125q74 125 231 125q119 0 191.5 -88t72.5 -234v-184h-416v-195q0 -68 34 -106.5t100 -38.5q63 0 97 39t34 106v66h151v-43 q0 -141 -75.5 -227t-188.5 -86q-182 0 -252 131q-94 -131 -252 -131q-111 0 -176.5 65t-65.5 182zM227 238q0 -49 27 -81t80 -32q63 0 112.5 42t49.5 103v183q-268 -33 -269 -191v-24zM657 567h265v115q0 68 -34 106.5t-97.5 38.5t-98.5 -39.5t-35 -105.5v-115z" />
<glyph unicode="&#xe7;" horiz-adv-x="731" d="M82 301v352q0 147 81 234.5t218 87.5t211 -84t74 -232v-41h-152v68q0 63 -34 102t-97 39q-133 0 -133 -151v-395q0 -150 133 -150q63 0 97 38t34 103v66h152v-41q0 -145 -72 -228t-207 -85l-92 -127q20 14 72 14q78 0 120.5 -48t42.5 -126q0 -72 -51 -121t-129 -49 q-53 0 -76 18v66h41q84 0 84 70v49q0 76 -84 75q-51 0 -96 -53l-63 45l141 195q-100 23 -157.5 104.5t-57.5 204.5z" />
<glyph unicode="&#xe8;" horiz-adv-x="735" d="M82 301v352q0 147 81 234.5t218 87.5q135 0 210 -87t75 -235v-184h-416v-195q0 -68 33.5 -106.5t99.5 -38.5q63 0 97 39t34 106v66h152v-43q0 -147 -74 -230t-211 -83q-139 0 -219 85t-80 232zM164 1378h184l84 -276h-110zM250 567h264v115q0 66 -34 105.5t-97.5 39.5 t-98 -39.5t-34.5 -105.5v-115z" />
<glyph unicode="&#xe9;" horiz-adv-x="735" d="M82 301v352q0 147 81 234.5t218 87.5q135 0 210 -87t75 -235v-184h-416v-195q0 -68 33.5 -106.5t99.5 -38.5q63 0 97 39t34 106v66h152v-43q0 -147 -74 -230t-211 -83q-139 0 -219 85t-80 232zM250 567h264v115q0 66 -34 105.5t-97.5 39.5t-98 -39.5t-34.5 -105.5v-115z M324 1102l86 276h182l-156 -276h-112z" />
<glyph unicode="&#xea;" horiz-adv-x="735" d="M82 301v352q0 147 81 234.5t218 87.5q135 0 210 -87t75 -235v-184h-416v-195q0 -68 33.5 -106.5t99.5 -38.5q63 0 97 39t34 106v66h152v-43q0 -147 -74 -230t-211 -83q-139 0 -219 85t-80 232zM109 1122v52q133 0 184 188h149q51 -188 183 -188v-52q-47 -14 -90 -14 q-63 0 -108.5 43t-64.5 117q-16 -74 -63 -117t-111 -43q-28 0 -79 14zM250 567h264v115q0 66 -34 105.5t-97.5 39.5t-98 -39.5t-34.5 -105.5v-115z" />
<glyph unicode="&#xeb;" horiz-adv-x="735" d="M82 301v352q0 147 81 234.5t218 87.5q135 0 210 -87t75 -235v-184h-416v-195q0 -68 33.5 -106.5t99.5 -38.5q63 0 97 39t34 106v66h152v-43q0 -147 -74 -230t-211 -83q-139 0 -219 85t-80 232zM162 1159v184h153v-184h-153zM250 567h264v115q0 66 -34 105.5t-97.5 39.5 t-98 -39.5t-34.5 -105.5v-115zM428 1159v184h154v-184h-154z" />
<glyph unicode="&#xec;" horiz-adv-x="368" />
<glyph unicode="&#xed;" horiz-adv-x="368" />
<glyph unicode="&#xee;" horiz-adv-x="368" />
<glyph unicode="&#xef;" horiz-adv-x="368" />
<glyph unicode="&#xf0;" horiz-adv-x="770" d="M82 297v401q0 115 66.5 191t168.5 76q129 0 203 -109q0 145 -69 262l-119 -59l-37 94l94 49q-68 80 -174 156v6h203q61 -43 106 -94l103 53l39 -94l-78 -41q100 -154 100 -373v-518q0 -143 -86 -228t-219 -85q-131 0 -216 85t-85 228zM250 266q0 -59 37 -96t96 -37t97 37 t38 96v398q0 74 -36 115.5t-99 41.5q-133 0 -133 -162v-393z" />
<glyph unicode="&#xf1;" horiz-adv-x="806" d="M98 0v958h144l12 -190q72 205 225 205q113 0 173.5 -72t60.5 -194v-707h-174v700q0 61 -31 97.5t-84 36.5q-68 0 -111 -73t-43 -134v-627h-172zM117 1212q0 152 139 152q55 0 144 -54.5t108 -54.5q39 0 39 45v68h76q27 -35 26 -84q0 -152 -139 -151q-53 0 -142 54 t-110 54q-37 0 -37 -43v-68h-78q-26 41 -26 82z" />
<glyph unicode="&#xf2;" horiz-adv-x="765" d="M82 301v352q0 145 82 233.5t219 88.5t218 -87t81 -235v-352q0 -147 -80 -232t-219 -85t-220 85t-81 232zM166 1378h184l84 -276h-110zM252 272q0 -66 33.5 -103.5t97 -37.5t97.5 38t34 103v414q0 63 -34 102t-97.5 39t-97 -38.5t-33.5 -102.5v-414z" />
<glyph unicode="&#xf3;" horiz-adv-x="765" d="M82 301v352q0 145 82 233.5t219 88.5t218 -87t81 -235v-352q0 -147 -80 -232t-219 -85t-220 85t-81 232zM252 272q0 -66 33.5 -103.5t97 -37.5t97.5 38t34 103v414q0 63 -34 102t-97.5 39t-97 -38.5t-33.5 -102.5v-414zM328 1102l86 276h182l-156 -276h-112z" />
<glyph unicode="&#xf4;" horiz-adv-x="765" d="M82 301v352q0 145 82 233.5t219 88.5t218 -87t81 -235v-352q0 -147 -80 -232t-219 -85t-220 85t-81 232zM131 1122v52q133 0 184 188h150q51 -188 182 -188v-52q-47 -14 -90 -14q-63 0 -108.5 43t-63.5 117q-16 -74 -63.5 -117t-110.5 -43q-31 0 -80 14zM252 272 q0 -66 33.5 -103.5t97 -37.5t97.5 38t34 103v414q0 63 -34 102t-97.5 39t-97 -38.5t-33.5 -102.5v-414z" />
<glyph unicode="&#xf5;" horiz-adv-x="765" d="M82 301v352q0 145 82 233.5t219 88.5t218 -87t81 -235v-352q0 -147 -80 -232t-219 -85t-220 85t-81 232zM100 1212q0 152 140 152q55 0 144 -54.5t108 -54.5q39 0 38 45v68h76q27 -35 27 -84q0 -152 -139 -151q-53 0 -142.5 54t-109.5 54q-37 0 -37 -43v-68h-78 q-27 41 -27 82zM252 272q0 -66 33.5 -103.5t97 -37.5t97.5 38t34 103v414q0 63 -34 102t-97.5 39t-97 -38.5t-33.5 -102.5v-414z" />
<glyph unicode="&#xf6;" horiz-adv-x="765" d="M82 301v352q0 145 82 233.5t219 88.5t218 -87t81 -235v-352q0 -147 -80 -232t-219 -85t-220 85t-81 232zM174 1159v184h154v-184h-154zM252 272q0 -66 33.5 -103.5t97 -37.5t97.5 38t34 103v414q0 63 -34 102t-97.5 39t-97 -38.5t-33.5 -102.5v-414zM440 1159v184h154 v-184h-154z" />
<glyph unicode="&#xf8;" horiz-adv-x="768" d="M41 4l78 127q-37 70 -37 170v352q0 145 82 233.5t219 88.5q131 0 211 -80l68 111l67 -52q-82 -133 -84 -133q37 -72 37 -168v-352q0 -147 -80 -232t-219 -85q-129 0 -209 75l-68 -106zM252 344l252 406q-31 78 -121 77q-63 0 -97 -38.5t-34 -102.5v-342zM264 205 q31 -74 119 -74q63 0 97 38t34 103v336z" />
<glyph unicode="&#xf9;" horiz-adv-x="808" d="M96 250v708h174v-702q0 -63 31 -99t84 -36q66 0 110 72.5t44 134.5v630h172v-958h-144l-12 164q-63 -180 -225 -180q-113 0 -173.5 71.5t-60.5 194.5zM193 1378h184l84 -276h-111z" />
<glyph unicode="&#xfa;" horiz-adv-x="808" d="M96 250v708h174v-702q0 -63 31 -99t84 -36q66 0 110 72.5t44 134.5v630h172v-958h-144l-12 164q-63 -180 -225 -180q-113 0 -173.5 71.5t-60.5 194.5zM346 1102l86 276h182l-155 -276h-113z" />
<glyph unicode="&#xfb;" horiz-adv-x="808" d="M96 250v708h174v-702q0 -63 31 -99t84 -36q66 0 110 72.5t44 134.5v630h172v-958h-144l-12 164q-63 -180 -225 -180q-113 0 -173.5 71.5t-60.5 194.5zM147 1122v52q133 0 185 188h149q51 -188 183 -188v-52q-47 -14 -91 -14q-63 0 -108 43t-64 117q-16 -74 -63 -117 t-111 -43q-31 0 -80 14z" />
<glyph unicode="&#xfc;" horiz-adv-x="808" d="M96 250v708h174v-702q0 -63 31 -99t84 -36q66 0 110 72.5t44 134.5v630h172v-958h-144l-12 164q-63 -180 -225 -180q-113 0 -173.5 71.5t-60.5 194.5zM195 1159v184h153v-184h-153zM461 1159v184h153v-184h-153z" />
<glyph unicode="&#xfd;" horiz-adv-x="692" d="M16 958h172l115 -530l41 -215l43 215l115 530h170l-260 -1021q-37 -145 -89.5 -210t-172.5 -65h-64v137h49q59 0 82 19.5t37 70.5l16 82zM293 1102l86 276h182l-155 -276h-113z" />
<glyph unicode="&#xfe;" horiz-adv-x="788" d="M98 -332v1696h170v-498q82 109 221 109q92 0 155 -75t63 -191v-459q0 -115 -62.5 -190.5t-155.5 -75.5q-76 0 -126 25.5t-95 84.5v-426h-170zM268 291q0 -74 37 -116t103 -42q131 0 131 168v358q0 168 -131 168q-66 0 -103 -42t-37 -115v-379z" />
<glyph unicode="&#xff;" horiz-adv-x="692" d="M16 958h172l115 -530l41 -215l43 215l115 530h170l-260 -1021q-37 -145 -89.5 -210t-172.5 -65h-64v137h49q59 0 82 19.5t37 70.5l16 82zM139 1159v184h154v-184h-154zM406 1159v184h153v-184h-153z" />
<glyph unicode="&#x152;" horiz-adv-x="1751" d="M92 360v644q0 174 98.5 281.5t282.5 107.5q186 0 283.5 -107.5t97.5 -281.5v-644q0 -176 -97.5 -283.5t-283.5 -107.5q-184 0 -282.5 108.5t-98.5 282.5zM287 344q0 -92 47 -146.5t139 -54.5t140.5 55.5t48.5 145.5v676q0 90 -48.5 145.5t-140.5 55.5t-139 -54.5 t-47 -146.5v-676zM1057 0v1364h635v-176h-443v-389h320v-168h-320v-455h443v-176h-635z" />
<glyph unicode="&#x153;" horiz-adv-x="1501" d="M82 301v352q0 145 82 233.5t219 88.5t218 -87t81 -235v-352q0 -147 -80 -232t-219 -85t-220 85t-81 232zM252 272q0 -66 33.5 -103.5t97 -37.5t97.5 38t34 103v414q0 63 -34 102t-97.5 39t-97 -38.5t-33.5 -102.5v-414zM848 301v352q0 147 81 234.5t218 87.5 q135 0 210 -87t75 -235v-184h-416v-195q0 -68 33.5 -106.5t99.5 -38.5q63 0 97 39t34 106v66h152v-43q0 -147 -74 -230t-211 -83q-139 0 -219 85t-80 232zM1016 567h264v115q0 66 -34 105.5t-97.5 39.5t-98 -39.5t-34.5 -105.5v-115z" />
<glyph unicode="&#x178;" horiz-adv-x="833" d="M-6 1364h209l223 -629l223 629h195l-328 -815v-549h-192v549zM209 1516v184h153v-184h-153zM475 1516v184h154v-184h-154z" />
<glyph unicode="&#x2c6;" horiz-adv-x="563" d="M25 1124v54q133 0 184 186h149q51 -186 183 -186v-54q-47 -14 -90 -14q-63 0 -108.5 43t-63.5 117q-16 -74 -63.5 -117t-111.5 -43q-30 0 -79 14z" />
<glyph unicode="&#x2dc;" horiz-adv-x="335" d="M-266 203q0 154 139 153q55 0 144 -54t108 -54q39 0 39 45v67h76q27 -35 26 -84q0 -152 -139 -151q-53 0 -142 54t-110 54q-37 0 -37 -43v-67h-78q-26 39 -26 80z" />
<glyph unicode="&#x2013;" horiz-adv-x="1024" d="M63 551v156h898v-156h-898z" />
<glyph unicode="&#x2014;" horiz-adv-x="2048" d="M63 551v156h1922v-156h-1922z" />
<glyph unicode="&#x2018;" horiz-adv-x="364" d="M39 1378h184l84 -276h-110z" />
<glyph unicode="&#x2019;" horiz-adv-x="364" d="M86 952l86 412h182l-155 -412h-113z" />
<glyph unicode="&#x201c;" horiz-adv-x="528" d="M55 952l70 412h158l-119 -412h-109zM281 952l100 412h160l-152 -412h-108z" />
<glyph unicode="&#x201d;" horiz-adv-x="528" d="M55 952l70 412h158l-119 -412h-109zM281 952l100 412h160l-152 -412h-108z" />
<glyph unicode="&#x2026;" horiz-adv-x="1161" d="M111 0v231h168v-231h-168zM498 0v231h168v-231h-168zM885 0v231h168v-231h-168z" />
<glyph unicode="&#x2039;" horiz-adv-x="950" d="M104 655v56l695 448v-186l-451 -291l451 -291v-186z" />
<glyph unicode="&#x203a;" horiz-adv-x="950" d="M154 205v186l450 291l-450 293v184l692 -450v-54z" />
<glyph unicode="&#x2122;" horiz-adv-x="2048" d="M27 1186v178h753v-178h-278v-1186h-195v1186h-280zM918 0v1364h270l186 -852l56 -260l55 262l182 850h270v-1364h-176v1063l-55 -260l-186 -803h-191l-182 803l-57 260v-1063h-172z" />
<glyph unicode="&#xe000;" horiz-adv-x="960" d="M0 960h960v-960h-960v960z" />
<glyph unicode="&#xfb01;" horiz-adv-x="847" d="M39 805v143h111v101q0 150 64.5 232.5t188.5 82.5h70v-145h-47q-113 0 -113 -136v-135h142v-143h-131v-805h-174v805h-111zM578 0v958h172v-958h-172zM584 1112v182h159v-182h-159z" />
<glyph unicode="&#xfb02;" horiz-adv-x="847" d="M39 805v143h111v101q0 150 64.5 232.5t188.5 82.5h70v-145h-47q-113 0 -113 -136v-135h142v-143h-131v-805h-174v805h-111zM578 0v1364h172v-1364h-172z" />
<glyph unicode="&#xfb03;" horiz-adv-x="1327" d="M39 805v143h111v101q0 150 64.5 232.5t188.5 82.5h70v-145h-47q-113 0 -113 -136v-135h142v-143h-131v-805h-174v805h-111zM518 805v143h111v101q0 150 64.5 232.5t189.5 82.5h69v-145h-47q-113 0 -112 -136v-135h141v-143h-131v-805h-174v805h-111zM1057 0v958h172v-958 h-172zM1063 1112v182h160v-182h-160z" />
<glyph unicode="&#xfb04;" horiz-adv-x="1327" d="M39 805v143h111v101q0 150 64.5 232.5t188.5 82.5h70v-145h-47q-113 0 -113 -136v-135h142v-143h-131v-805h-174v805h-111zM518 805v143h111v101q0 150 64.5 232.5t189.5 82.5h69v-145h-47q-113 0 -112 -136v-135h141v-143h-131v-805h-174v805h-111zM1057 0v1364h172 v-1364h-172z" />
</font>
</defs>
</svg>
